<svg width="186" height="140" viewBox="0 0 186 140" fill="none" xmlns="http://www.w3.org/2000/svg">
<g id="OBJECTS">
<path id="Vector" d="M168.803 71.8904C167.663 89.5261 154.138 106.365 135.816 107.419C114.777 109.031 95.4629 97.4915 74.5013 97.3691C63.816 96.4555 53.7905 100.546 43.3769 101.868C19.8536 102.731 16.268 75.0879 20.6568 57.2671C39.1583 -26.7465 170.084 -15.3178 168.803 71.8904Z" fill="#0ADA76"/>
<g id="Group">
<g id="Group_2">
<path id="Vector_2" d="M168.363 140H152.259L146.336 111.76L142.228 140H125.359L127.679 118.976L129.142 105.75L130.023 97.7754L152.91 91.876L163.243 92.4462L168.363 140Z" fill="#6BB2AB"/>
<path id="Vector_3" d="M145.333 109.661L137.137 104.851L134.836 103.496C134.689 103.406 134.579 103.651 134.725 103.738L142.897 108.545L145.21 109.903C145.372 109.99 145.479 109.745 145.333 109.661Z" fill="#389688"/>
<path id="Vector_4" d="M144.841 110.267L138.974 108.775C138.81 108.73 138.768 108.996 138.932 109.037L144.799 110.53C144.966 110.572 145.008 110.309 144.841 110.267Z" fill="#389688"/>
<path id="Vector_5" d="M164.398 120.495C163.735 114.723 163.072 108.945 162.407 103.161C162.035 99.8888 161.66 96.6176 161.281 93.3474C161.274 93.3149 161.256 93.286 161.228 93.2665C161.201 93.2471 161.168 93.2383 161.135 93.2421C161.102 93.2458 161.071 93.2617 161.049 93.2867C161.027 93.3117 161.015 93.344 161.016 93.3773L163.016 110.798C163.679 116.57 164.343 122.347 165.007 128.129C165.384 131.401 165.759 134.674 166.133 137.946C166.14 137.978 166.159 138.007 166.186 138.027C166.213 138.046 166.246 138.055 166.279 138.051C166.312 138.047 166.343 138.031 166.365 138.007C166.387 137.982 166.399 137.949 166.399 137.916L164.398 120.495Z" fill="#389688"/>
</g>
<g id="Group_3">
<path id="Vector_6" d="M185.09 36.282C184.842 38.5779 184.215 40.8201 183.597 43.0473L181.887 49.1886L175.441 49.0304C174.765 48.5936 174.194 48.0124 173.769 47.3286C173.196 46.352 172.73 45.3158 172.381 44.2386C172.033 43.1579 171.542 42.1287 170.921 41.1784C170.641 40.8508 170.419 40.477 170.267 40.0737C170.151 39.6587 170.285 39.1332 170.682 38.9661C171.079 38.7989 171.578 39.0974 171.927 39.4049C173.191 40.5198 174.275 41.8229 175.142 43.2682H175.16C175.28 39.5781 175.4 35.8869 175.522 32.1948C175.518 31.9866 175.551 31.7794 175.62 31.5828C175.656 31.4844 175.718 31.3976 175.8 31.3319C175.881 31.2661 175.979 31.2238 176.083 31.2096C176.468 31.1857 176.68 31.6455 176.773 32.0216C177.361 34.4033 177.677 36.8443 177.713 39.2975C177.889 36.7239 178.149 34.1503 178.489 31.5917C178.561 31.0543 178.65 30.4841 179.015 30.081C179.08 30 179.162 29.9346 179.255 29.8897C179.349 29.8447 179.451 29.8213 179.555 29.8213C179.94 29.8601 180.089 30.3378 180.152 30.717C180.516 33.5512 180.561 36.4173 180.286 39.2616C180.75 36.8374 181.215 34.4131 181.681 31.9888C181.688 31.8585 181.722 31.7311 181.78 31.6142C181.838 31.4972 181.919 31.3931 182.018 31.3081C182.373 31.0842 182.836 31.4066 183.039 31.7738C183.388 32.4247 183.338 33.2099 183.269 33.9443C183.01 36.0404 182.64 38.1212 182.161 40.1782C182.699 38.6974 183.257 37.2245 183.836 35.7596C183.953 35.461 184.135 35.1236 184.433 35.0848C184.566 35.0792 184.696 35.1178 184.805 35.1945C184.913 35.2713 184.992 35.3818 185.031 35.5088C185.11 35.7585 185.13 36.0231 185.09 36.282Z" fill="#E88846"/>
<path id="Vector_7" d="M129.139 105.75L127.676 118.976C126.374 118.588 125.066 116.776 124.672 115.728C123.845 113.79 124.075 111.647 124.051 109.584C124.153 108.151 123.627 106.431 124.35 105.144C125.443 104.35 126.959 105.105 128.133 105.377C128.485 105.449 128.825 105.574 129.139 105.75Z" fill="#E88846"/>
<path id="Vector_8" d="M181.712 48.8458L174.91 48.6757H174.531L173.003 54.7692C173.003 54.7692 169.304 46.4096 166.246 42.7075C163.189 39.0054 152.91 39.089 152.91 39.089L139.111 41.9104C139.111 41.9104 129.614 47.5023 126.837 49.437C124.06 51.3716 122.621 51.7776 122.027 62.4689C121.433 73.1602 122.472 106.204 122.472 106.204C122.472 106.204 124.714 108.19 129.04 106.634L129.909 98.8002C129.909 98.8002 142.872 104.604 151.763 93.462C151.763 93.462 160.469 93.3516 163.243 92.4619L162.646 76.7011L163.243 65.1589C163.243 65.1589 169.092 77.4803 176.048 77.2176C183.004 76.9549 182.336 60.9762 182.482 48.8787L181.712 48.8458ZM131.647 84.8278L131.894 70.6673L133.128 77.6236L131.647 84.8278Z" fill="#AF3737"/>
<path id="Vector_9" d="M152.911 39.0883C152.911 39.0883 152.746 40.5273 152.385 42.25C151.967 44.2235 151.287 46.5731 150.295 47.5464L149.101 47.0299L146.904 51.4425L142.637 48.4839L141.527 49.4482C141.527 49.4482 138.359 47.8181 136.914 43.2323C136.914 43.2323 137.213 41.4409 139.538 41.3723L139.574 42.6501L145.402 45.3371L150.286 40.2825L149.845 38.9151C150.853 38.5923 151.945 38.6539 152.911 39.0883Z" fill="#F4E9DC"/>
<path id="Vector_10" d="M182.426 39.5839C180.79 39.0566 179.084 38.7769 177.365 38.7539C177.192 38.7539 177.225 39.0166 177.392 39.0196C179.064 39.0403 180.724 39.312 182.315 39.8257C182.476 39.8795 182.59 39.6376 182.426 39.5839Z" fill="#C4532C"/>
<path id="Vector_11" d="M180.622 41.4768C179.512 42.0929 178.497 42.865 177.606 43.7697C177.487 43.8921 177.693 44.0682 177.812 43.9369C178.688 43.0505 179.686 42.2944 180.777 41.6917C180.926 41.5992 180.768 41.3842 180.622 41.4768Z" fill="#C4532C"/>
<path id="Vector_12" d="M131.212 59.05L131.024 55.6315C131.024 55.4584 130.749 55.4882 130.758 55.6614C130.983 59.7018 131.208 63.7413 131.433 67.7798L131.624 71.2012C131.624 71.3714 131.899 71.3415 131.887 71.1714C131.664 67.1329 131.439 63.0924 131.212 59.05Z" fill="#8E2323"/>
<path id="Vector_13" d="M163.326 64.6804C162.649 62.6104 161.901 60.5663 161.081 58.5481C160.848 57.9689 160.606 57.3926 160.361 56.8194C160.293 56.6612 160.045 56.7567 160.113 56.915C160.969 58.9053 161.757 60.9335 162.475 62.9995C162.681 63.5966 162.884 64.1938 163.072 64.7759C163.132 64.9401 163.38 64.8416 163.326 64.6804Z" fill="#8E2323"/>
<path id="Vector_14" d="M162.302 64.5791L158.62 60.0291C158.513 59.8948 158.295 60.05 158.405 60.1844L162.087 64.7374C162.185 64.8687 162.4 64.7135 162.302 64.5791Z" fill="#8E2323"/>
<path id="Vector_15" d="M172.705 55.0791C172.05 57.4875 171.395 59.8968 170.74 62.3071L170.185 64.3522C170.14 64.5194 170.403 64.5583 170.448 64.394C171.102 61.9877 171.757 59.5793 172.412 57.169L172.967 55.1209C173.012 54.9567 172.752 54.9119 172.705 55.0791Z" fill="#8E2323"/>
<path id="Vector_16" d="M157.649 87.49L152.206 93.1954C152.09 93.3208 152.296 93.494 152.412 93.3656L157.855 87.6572C157.971 87.5348 157.765 87.3676 157.649 87.49Z" fill="#8E2323"/>
<path id="Vector_17" d="M154.392 88.709C152.368 91.0527 150.305 93.3963 147.845 95.2951C145.51 97.0865 142.797 98.4986 139.841 98.8778C138.119 99.1105 136.366 98.9409 134.721 98.3822C134.559 98.3255 134.449 98.5673 134.61 98.624C137.539 99.657 140.772 99.3137 143.6 98.1314C146.427 96.9491 148.806 95.0384 150.938 92.9067C152.219 91.6259 153.413 90.2585 154.598 88.8881C154.712 88.7478 154.506 88.5806 154.392 88.709Z" fill="#8E2323"/>
<path id="Vector_18" d="M131.381 85.1764C130.836 87.0021 130.404 88.8597 130.088 90.7385C129.933 91.664 129.804 92.5945 129.703 93.53C129.61 94.4077 129.521 95.2944 129.509 96.1782C129.497 97.0619 129.616 97.9486 130.148 98.6622C130.17 98.6852 130.201 98.6991 130.233 98.7014C130.266 98.7036 130.298 98.694 130.324 98.6743C130.35 98.6546 130.368 98.6261 130.374 98.5943C130.381 98.5624 130.376 98.5292 130.359 98.5009C129.929 97.854 129.72 97.0853 129.762 96.3095C129.774 95.4361 129.834 94.564 129.942 93.6972C130.131 91.8696 130.43 90.0551 130.837 88.2635C131.07 87.2444 131.336 86.2333 131.634 85.2301C131.694 85.0659 131.431 85.0152 131.381 85.1764Z" fill="#8E2323"/>
<path id="Vector_19" d="M152.456 63.7495C149.574 65.8237 146.944 68.2286 144.622 70.9149C143.965 71.6732 143.335 72.4524 142.732 73.2526C142.627 73.3899 142.833 73.5511 142.938 73.4228C145.068 70.6015 147.522 68.0403 150.25 65.7917C151.018 65.1607 151.805 64.5556 152.611 63.9764C152.737 63.869 152.578 63.651 152.456 63.7495Z" fill="#8E2323"/>
<path id="Vector_20" d="M151.191 69.3892L146.5 72.6076C146.36 72.7031 146.515 72.9062 146.659 72.8226L151.346 69.6041C151.489 69.5086 151.331 69.2936 151.191 69.3892Z" fill="#8E2323"/>
<path id="Vector_21" d="M145.232 45.8124C144.336 46.5959 143.494 47.4398 142.712 48.3382C142.599 48.4665 142.808 48.6367 142.918 48.5053C143.685 47.6251 144.51 46.7973 145.388 46.0273C145.516 45.9139 145.361 45.6989 145.232 45.8124Z" fill="#E2CAB0"/>
<path id="Vector_22" d="M149.112 46.8509C148.152 46.3322 147.154 45.8861 146.127 45.5164C145.966 45.4596 145.855 45.7015 146.016 45.7612C147.044 46.1287 148.042 46.5738 149.002 47.0927C149.166 47.1644 149.262 46.9226 149.112 46.8509Z" fill="#E2CAB0"/>
</g>
<g id="Group_4">
<path id="Vector_23" d="M148.883 25.6533C148.233 26.9727 147.106 27.9954 145.73 28.5135C144.501 28.9892 143.145 29.0198 141.896 28.6001C140.959 28.9474 139.97 29.1361 138.971 29.1584C138.103 29.1792 137.238 29.0695 136.403 28.833C135.621 28.6355 134.91 28.2216 134.352 27.6387C133.247 26.4206 133.271 24.7039 133.546 23.1604C132.793 22.2408 132.223 21.0884 132.474 19.8763C132.575 19.3766 132.827 18.9201 133.197 18.5686C133.582 18.237 134.021 17.9735 134.495 17.7894C135.009 17.5904 135.508 17.3539 135.988 17.0818C136.508 16.7534 136.985 16.3653 137.499 16.0339C138.394 15.4576 139.505 15.0695 140.523 15.5741C140.918 15.7672 141.257 16.0572 141.509 16.4169C141.761 16.7766 141.918 17.1944 141.965 17.6311C142.783 17.2057 143.684 16.9652 144.604 16.9265C145.472 16.9088 146.324 17.1568 147.047 17.6371C149.572 19.321 150.175 23.0081 148.883 25.6533Z" fill="#36344C"/>
<path id="Vector_24" d="M149.291 29.7616L149.515 31.0125C149.657 31.8132 149.648 32.6335 149.488 33.4308C149.333 34.1872 149.047 34.9107 148.643 35.5685C148.164 36.3504 147.525 37.0219 146.768 37.5387C146.01 38.0555 145.152 38.4058 144.249 38.5666C143.346 38.7274 142.42 38.695 141.53 38.4716C140.641 38.2481 139.809 37.8387 139.089 37.2702C137.83 36.2875 136.979 34.8728 136.701 33.2994L136.477 32.0455C132.894 32.6844 131.924 28.218 133.262 26.9521L133.369 26.8596C134.304 26.0863 135.175 26.7402 135.486 27.0328C134.963 24.51 135.832 23.0978 135.832 23.0978C136.92 23.2515 138.023 23.2736 139.116 23.1635C140.452 23.032 141.761 22.6999 142.998 22.1782C143.85 21.8049 144.669 21.3595 145.446 20.8467C145.446 20.8467 147.685 22.7007 148.41 24.8623C148.41 24.8623 148.802 23.7785 149.76 23.7098C150.027 23.6945 150.293 23.7447 150.536 23.8561C152.241 24.5906 152.871 29.1256 149.291 29.7616Z" fill="#E88846"/>
<path id="Vector_25" d="M150.424 40.1602L145.411 45.3581L139.237 42.8412L139.201 41.3305L139.094 37.2642C139.813 37.8332 140.645 38.2433 141.534 38.4672C142.423 38.6912 143.35 38.7239 144.253 38.5634C145.156 38.4028 146.014 38.0526 146.772 37.5359C147.529 37.0191 148.169 36.3475 148.648 35.5654L149.994 39.0376L150.424 40.1602Z" fill="#E88846"/>
<path id="Vector_26" d="M149.995 39.043L150.425 40.1596L149.992 39.043H149.995Z" fill="#E88846"/>
<path id="Vector_27" d="M148.642 35.5713C148.642 35.5713 147.173 42.4381 139.198 41.3364L139.094 37.2731C139.813 37.8424 140.645 38.2526 141.534 38.4766C142.424 38.7006 143.351 38.7333 144.254 38.5724C145.157 38.4116 146.015 38.0609 146.773 37.5435C147.53 37.0262 148.169 36.3539 148.648 35.5713H148.642Z" fill="#C4532C"/>
<path id="Vector_28" d="M144.041 31.3799C143.285 31.6367 142.524 31.8755 141.76 32.1024C141.73 30.339 141.675 28.5745 141.595 26.809C141.595 26.6239 141.297 26.6568 141.297 26.8419C141.38 28.6671 141.436 30.4912 141.464 32.3144C141.464 32.4159 141.583 32.4547 141.664 32.4308C142.494 32.186 143.319 31.9253 144.139 31.6486C144.327 31.5889 144.217 31.3262 144.041 31.3799Z" fill="#C4532C"/>
<path id="Vector_29" d="M145.938 31.5382C145.994 32.1032 145.897 32.6728 145.655 33.1868C145.414 33.7008 145.038 34.14 144.568 34.458C144.413 34.5625 144.589 34.7924 144.741 34.6879C145.254 34.3412 145.663 33.8624 145.926 33.3022C146.189 32.7419 146.295 32.1211 146.234 31.5053C146.232 31.4859 146.226 31.4671 146.217 31.45C146.207 31.4329 146.194 31.4178 146.179 31.4056C146.148 31.381 146.109 31.3696 146.07 31.374C146.031 31.3783 145.995 31.3981 145.97 31.4289C145.946 31.4596 145.934 31.499 145.938 31.5382Z" fill="#36344C"/>
<path id="Vector_30" d="M138.744 32.9438C139.37 32.9438 139.878 32.4359 139.878 31.8093C139.878 31.1827 139.37 30.6748 138.744 30.6748C138.117 30.6748 137.609 31.1827 137.609 31.8093C137.609 32.4359 138.117 32.9438 138.744 32.9438Z" fill="#C4532C"/>
<path id="Vector_31" d="M147.517 30.4507C148.144 30.4507 148.652 29.9427 148.652 29.3162C148.652 28.6896 148.144 28.1816 147.517 28.1816C146.891 28.1816 146.383 28.6896 146.383 29.3162C146.383 29.9427 146.891 30.4507 147.517 30.4507Z" fill="#C4532C"/>
<path id="Vector_32" d="M139.115 29.5991C139.548 29.4763 139.776 28.9433 139.624 28.4087C139.472 27.8742 138.998 27.5404 138.565 27.6633C138.132 27.7861 137.904 28.3191 138.056 28.8537C138.208 29.3882 138.682 29.722 139.115 29.5991Z" fill="#36344C"/>
<path id="Vector_33" d="M145.107 28.1294C145.54 28.0065 145.768 27.4736 145.616 26.939C145.465 26.4044 144.991 26.0707 144.558 26.1935C144.124 26.3164 143.896 26.8494 144.048 27.3839C144.2 27.9185 144.674 28.2523 145.107 28.1294Z" fill="#36344C"/>
<path id="Vector_34" d="M139.042 26.1546C138.95 26.0357 138.816 25.9557 138.668 25.9307H138.513C138.411 25.9412 138.314 25.9794 138.232 26.0411L137.089 26.7189C137.029 26.7637 136.978 26.82 136.939 26.8846C136.901 26.9492 136.876 27.0207 136.865 27.095C136.844 27.2492 136.883 27.4056 136.976 27.5309C137.067 27.6513 137.202 27.7307 137.352 27.7519H137.507C137.608 27.7402 137.704 27.701 137.785 27.6384L138.931 26.9607C138.992 26.9152 139.043 26.858 139.082 26.7925C139.12 26.727 139.145 26.6545 139.156 26.5793C139.166 26.504 139.161 26.4274 139.141 26.354C139.122 26.2806 139.088 26.2118 139.042 26.1516V26.1546Z" fill="#36344C"/>
<path id="Vector_35" d="M143.151 24.9877C143.167 24.8388 143.238 24.7013 143.351 24.6026L143.482 24.519C143.575 24.4755 143.678 24.4579 143.78 24.4682L145.112 24.4443C145.262 24.458 145.4 24.5298 145.497 24.6444C145.596 24.7646 145.645 24.9189 145.632 25.0743C145.617 25.2245 145.544 25.363 145.429 25.4594L145.3 25.543C145.207 25.5879 145.104 25.6055 145.002 25.5938L143.67 25.6206C143.52 25.6056 143.382 25.5328 143.285 25.4176C143.186 25.2974 143.137 25.1431 143.151 24.9877Z" fill="#36344C"/>
</g>
</g>
<g id="Group_5">
<g id="Group_6">
<path id="Vector_36" d="M36.9852 105.289L32.9219 139.999H51.9966L55.9077 114.455L60.3353 139.999H80.037L74.3047 105.289H36.9852Z" fill="#AF3737"/>
<path id="Vector_37" d="M54.6798 114.38L49.7029 112.95C49.5446 112.905 49.5058 113.156 49.6611 113.2L54.641 114.634C54.8142 114.678 54.838 114.425 54.6798 114.38Z" fill="#8E2323"/>
<path id="Vector_38" d="M53.7909 115.321L48.9543 115.619C48.7901 115.619 48.817 115.882 48.9812 115.873L53.8208 115.574C53.985 115.565 53.9551 115.312 53.7909 115.321Z" fill="#8E2323"/>
</g>
<g id="Group_7">
<path id="Vector_39" d="M45.5951 43.4969C45.5951 43.4969 42.9081 43.5178 41.4959 45.6495C41.4959 45.6495 34.1992 47.2736 32.6945 49.892C31.1898 52.5103 22.0391 67.4023 22.0391 67.4023L29.9209 82.8615C29.9209 82.8615 33.7126 81.939 33.2976 77.9413L35.7995 74.8154L37.4654 85.1455L35.9727 108.636C35.9727 108.636 41.278 113.413 44.6308 113.825C47.9836 114.237 56.2118 108.588 56.2118 108.588C56.2118 108.588 64.2489 113.846 67.2374 114.147C70.226 114.449 75.1581 108.31 75.1581 108.31L72.5428 80.4432L73.0294 64.5302L81.4368 68.71C81.4368 68.71 84.3327 73.448 89.4978 70.349L87.5452 57.6604C87.5452 57.6604 74.4595 48.2649 71.4023 46.1929C68.3451 44.1209 58.1972 44.3179 58.1972 44.3179C58.1972 44.3179 56.4685 42.649 54.6682 42.9267L45.5951 43.4969Z" fill="#F2B34E"/>
<path id="Vector_40" d="M50.0582 55.8424C49.1357 54.496 48.2012 53.1316 47.001 52.012C45.9411 51.0267 44.6305 50.1938 43.1855 49.943C42.4648 49.7945 41.7152 49.8922 41.0568 50.2206C40.9035 49.006 41.0649 47.7723 41.5255 46.638C41.5882 46.4857 41.3553 46.3812 41.2926 46.5335C40.7884 47.7673 40.6265 49.1144 40.8239 50.4326C40.8272 50.4545 40.836 50.4752 40.8494 50.4928C40.8628 50.5104 40.8805 50.5243 40.9008 50.5332C40.921 50.5422 40.9432 50.5458 40.9653 50.5439C40.9873 50.542 41.0085 50.5345 41.0269 50.5222C42.2211 49.731 43.8692 50.2445 45.0276 50.8775C46.312 51.6301 47.4295 52.6369 48.3117 53.8362C48.858 54.5318 49.3566 55.2603 49.8552 55.9887C49.9448 56.1291 50.1508 55.9798 50.0582 55.8424Z" fill="#EA8C11"/>
<path id="Vector_41" d="M59.2597 45.53C59.1941 45.3778 58.9612 45.4703 59.0209 45.6226C59.5008 46.7578 59.8465 47.9451 60.0509 49.1605C57.2714 49.459 55.1397 51.5489 53.5961 53.7314C53.1125 54.4151 52.6646 55.1226 52.2168 55.8213C52.1302 55.9616 52.3273 56.1198 52.4168 55.9855C53.8827 53.6567 55.483 51.1757 58.0685 49.9755C58.7441 49.6539 59.4704 49.4518 60.2151 49.3784C60.2489 49.3739 60.2797 49.3565 60.3009 49.3297C60.322 49.303 60.332 49.2691 60.3286 49.2351C60.1212 47.9619 59.7624 46.7181 59.2597 45.53Z" fill="#EA8C11"/>
<path id="Vector_42" d="M32.9652 77.3892C31.5268 74.0979 29.3303 71.1936 26.5553 68.9132C26.5287 68.8914 26.4946 68.8811 26.4605 68.8844C26.4263 68.8878 26.3949 68.9046 26.3731 68.9311C26.3514 68.9576 26.341 68.9917 26.3444 69.0259C26.3477 69.06 26.3645 69.0914 26.391 69.1132C29.1391 71.3548 31.3113 74.221 32.7264 77.4728C32.7921 77.634 33.022 77.5414 32.9652 77.3892Z" fill="#EA8C11"/>
<path id="Vector_43" d="M81.3843 57.5772C81.4202 57.4159 81.1664 57.3771 81.1336 57.5354C80.5663 60.1976 80.3933 62.9287 80.62 65.6412C80.6857 66.4204 80.7842 67.1907 80.9186 67.9609C80.9455 68.1221 81.2022 68.0953 81.1724 67.9311C80.7169 65.2502 80.6605 62.5167 81.0052 59.8193C81.0858 59.067 81.2201 58.3176 81.3843 57.5772Z" fill="#EA8C11"/>
<path id="Vector_44" d="M54.4747 88.648L53.0417 69.1165C52.7749 65.4622 52.5072 61.8078 52.2385 58.1535C52.2385 57.9893 51.9728 58.0162 51.9848 58.1804C52.4625 64.6929 52.9391 71.2044 53.4148 77.7149L54.8479 97.2494L55.651 108.212C55.651 108.377 55.9167 108.347 55.9048 108.183C55.4271 101.674 54.9504 95.1625 54.4747 88.648Z" fill="#EA8C11"/>
<path id="Vector_45" d="M34.7377 64.2794L34.3436 61.5626C34.3396 61.5285 34.3223 61.4974 34.2954 61.4762C34.2685 61.4549 34.2343 61.4451 34.2003 61.4491C34.1662 61.4531 34.1351 61.4704 34.1138 61.4973C34.0926 61.5241 34.0828 61.5584 34.0868 61.5924C34.5526 64.7929 35.0173 67.9935 35.4811 71.194C35.6154 72.0896 35.7468 73.0062 35.8781 73.9108C35.902 74.0721 36.1558 74.0452 36.1319 73.881C35.6662 70.6805 35.2014 67.4799 34.7377 64.2794Z" fill="#EA8C11"/>
<path id="Vector_46" d="M35.0768 73.3677L33.5094 67.4503C33.4676 67.292 33.2287 67.3876 33.2705 67.5458L34.8379 73.4692C34.8797 73.6184 35.1066 73.5259 35.0768 73.3677Z" fill="#EA8C11"/>
<path id="Vector_47" d="M73.3683 54.9521C73.2429 57.257 73.1185 59.5628 72.9951 61.8697L72.8906 63.8401C72.8906 64.0014 73.1325 64.0432 73.1414 63.879C73.2668 61.5721 73.3912 59.2653 73.5146 56.9584L73.6221 54.9909C73.6221 54.8297 73.3773 54.7879 73.3683 54.9521Z" fill="#EA8C11"/>
</g>
<g id="Group_8">
<path id="Vector_48" d="M56.2662 46.1579L50.9191 56.891L44.3359 46.9043L44.5419 44.5546L44.9122 40.3748C45.5815 41.0404 46.3843 41.5567 47.2676 41.8895C48.1509 42.2223 49.0947 42.3642 50.0369 42.3058C50.979 42.2475 51.8981 41.9901 52.7335 41.5507C53.569 41.1114 54.3019 40.5 54.8839 39.7568L56.2662 46.1579Z" fill="#D36D29"/>
<path id="Vector_49" d="M54.8878 39.7666C54.8878 39.7666 52.6874 45.3735 44.6562 43.3015L44.916 40.3846C45.5853 41.0502 46.3881 41.5664 47.2714 41.8993C48.1547 42.2321 49.0986 42.374 50.0407 42.3156C50.9828 42.2572 51.9019 41.9999 52.7374 41.5605C53.5728 41.1211 54.3057 40.5098 54.8878 39.7666Z" fill="#AA3617"/>
<path id="Vector_50" d="M55.8427 34.8217L55.9203 36.0398C56.0132 37.5687 55.5391 39.0781 54.5888 40.2793C53.8061 41.2664 52.743 41.9935 51.5392 42.3649C50.3355 42.7364 49.0475 42.7347 47.8447 42.3603C46.6419 41.9859 45.5806 41.2561 44.8004 40.2671C44.0202 39.278 43.5576 38.076 43.4735 36.8191L43.4019 35.598C40.0431 35.8099 39.5207 31.7376 40.7656 30.5225C40.8073 30.4823 40.8511 30.4444 40.897 30.4091C40.9328 30.3792 40.9746 30.3553 41.0075 30.3314C41.9808 29.6985 42.7361 30.415 43.0018 30.7255C43.398 30.3724 43.6783 29.9078 43.8062 29.3927C43.934 28.8776 43.9034 28.3359 43.7184 27.8385C44.2554 27.7783 44.749 27.515 45.0982 27.1026C45.4474 26.6902 45.6256 26.1598 45.5963 25.6202C45.9741 25.8126 46.3976 25.8973 46.8204 25.865C47.0452 25.8502 47.2666 25.8019 47.4772 25.7217C47.7793 25.6041 48.0536 25.4246 48.2824 25.1947C48.5112 24.9649 48.6894 24.6899 48.8058 24.3872C49.3898 24.8566 50.1202 25.106 50.8694 25.0918C51.6186 25.0776 52.339 24.8008 52.9049 24.3096C52.9592 24.8636 53.1533 25.3947 53.4692 25.8531C53.5479 25.9741 53.6357 26.0889 53.7319 26.1964C54.1258 26.6639 54.643 27.0115 55.2247 27.1996C55.0667 27.6012 54.9938 28.0312 55.0108 28.4624C55.0277 28.8936 55.1341 29.3166 55.3232 29.7045C55.3889 29.7791 55.4576 29.8508 55.5292 29.9224V30.0747C55.5561 30.018 56.0457 29.0894 56.9384 29.1283C57.193 29.1448 57.4399 29.2226 57.6579 29.3552C57.7552 29.4082 57.8446 29.4745 57.9236 29.5522C59.2164 30.7464 59.1059 34.6097 55.8427 34.8217Z" fill="#D36D29"/>
<path id="Vector_51" d="M50.6687 35.8045C49.9203 35.9617 49.1699 36.107 48.4176 36.2404C48.5828 34.5605 48.7231 32.8756 48.8385 31.1858C48.8385 31.0097 48.5758 31.0097 48.5609 31.1858C48.4454 32.9274 48.3002 34.668 48.125 36.4076C48.125 36.5061 48.2205 36.5539 48.3011 36.5419C49.1172 36.3986 49.9313 36.2404 50.7433 36.0672C50.9165 36.0194 50.8419 35.7537 50.6687 35.8045Z" fill="#AA3617"/>
<path id="Vector_52" d="M45.5789 36.7057C46.1791 36.7057 46.6657 36.2192 46.6657 35.619C46.6657 35.0188 46.1791 34.5322 45.5789 34.5322C44.9787 34.5322 44.4922 35.0188 44.4922 35.619C44.4922 36.2192 44.9787 36.7057 45.5789 36.7057Z" fill="#AA3617"/>
<path id="Vector_53" d="M54.2039 35.2965C54.8041 35.2965 55.2907 34.81 55.2907 34.2098C55.2907 33.6096 54.8041 33.123 54.2039 33.123C53.6037 33.123 53.1172 33.6096 53.1172 34.2098C53.1172 34.81 53.6037 35.2965 54.2039 35.2965Z" fill="#AA3617"/>
<path id="Vector_54" d="M46.1735 33.5488C46.5982 33.4793 46.8729 32.9982 46.7871 32.4742C46.7013 31.9502 46.2874 31.5819 45.8627 31.6514C45.438 31.721 45.1633 32.2021 45.2491 32.7261C45.3349 33.25 45.7488 33.6184 46.1735 33.5488Z" fill="#36344C"/>
<path id="Vector_55" d="M52.0406 32.8028C52.4653 32.7332 52.7401 32.2521 52.6543 31.7281C52.5685 31.2042 52.1546 30.8358 51.7299 30.9053C51.3052 30.9749 51.0305 31.456 51.1163 31.98C51.2021 32.5039 51.6159 32.8723 52.0406 32.8028Z" fill="#36344C"/>
<path id="Vector_56" d="M46.4823 30.2717C46.4082 30.1486 46.2895 30.0587 46.1509 30.0209L46.0016 30C45.904 30.0018 45.8084 30.0285 45.724 30.0776L44.5596 30.5971C44.4662 30.6529 44.3912 30.7349 44.344 30.8329C44.2968 30.931 44.2795 31.0407 44.2941 31.1485C44.3087 31.2563 44.3547 31.3575 44.4263 31.4394C44.4979 31.5213 44.592 31.5803 44.6969 31.6092L44.8462 31.6271C44.9438 31.6279 45.0398 31.6021 45.1239 31.5525L46.2882 31.03C46.4133 30.9575 46.5046 30.8383 46.542 30.6986C46.5794 30.554 46.5579 30.4005 46.4823 30.2717Z" fill="#36344C"/>
<path id="Vector_57" d="M50.5188 29.6121C50.5492 29.4703 50.6339 29.346 50.7547 29.2658L50.8861 29.2031C50.9819 29.1688 51.0854 29.1626 51.1846 29.1852L52.4535 29.3076C52.5599 29.3305 52.6573 29.3841 52.7335 29.4619C52.8097 29.5397 52.8613 29.6381 52.882 29.745C52.9027 29.8519 52.8915 29.9626 52.8498 30.0631C52.8081 30.1637 52.7378 30.2498 52.6475 30.3107L52.5132 30.3764C52.4169 30.4083 52.3137 30.4135 52.2146 30.3914L50.9458 30.2689C50.8046 30.239 50.6804 30.1555 50.5994 30.0361C50.5187 29.9105 50.4898 29.7585 50.5188 29.6121Z" fill="#36344C"/>
<path id="Vector_58" d="M58.8941 27.9673C58.7082 28.5644 58.3816 29.1081 57.9417 29.5526C57.8627 29.4749 57.7733 29.4086 57.676 29.3555C57.4579 29.223 57.2111 29.1452 56.9565 29.1286C56.0608 29.0898 55.5741 30.0243 55.5473 30.0751V29.9228C55.4756 29.8511 55.407 29.7795 55.3413 29.7049C55.0576 29.1203 54.9616 28.4622 55.0666 27.821C54.5332 27.8952 53.9903 27.7902 53.5231 27.5224C53.0223 27.2373 52.6352 26.7881 52.4274 26.2506C52.1332 26.4168 51.8117 26.529 51.478 26.582C51.0937 26.633 50.7031 26.6065 50.3292 26.5039C49.9554 26.4013 49.6059 26.2248 49.3015 25.9848C49.1008 26.1654 48.8781 26.3199 48.6387 26.4446C47.9283 26.7909 47.1128 26.8539 46.3577 26.6208C46.2232 27.004 46.0026 27.3512 45.7128 27.6359C45.2124 28.1231 44.5506 28.4099 43.8528 28.442C43.8893 28.741 43.8731 29.0441 43.8051 29.3376C43.6871 29.8751 43.403 30.3619 42.993 30.7289C42.7273 30.4303 41.9719 29.7019 40.9986 30.3348C40.9658 30.3587 40.924 30.3826 40.8882 30.4124C40.8423 30.4478 40.7985 30.4856 40.7568 30.5259C40.5831 30.3819 40.4474 30.1974 40.3615 29.9887C40.2757 29.78 40.2423 29.5535 40.2644 29.3289C40.2865 29.1043 40.3634 28.8886 40.4883 28.7007C40.6132 28.5127 40.7823 28.3583 40.9807 28.2509C40.7633 28.0407 40.6062 27.7759 40.5259 27.4843C40.4457 27.1926 40.4452 26.8848 40.5245 26.5929C40.6038 26.301 40.76 26.0357 40.9768 25.8248C41.1936 25.6139 41.463 25.465 41.757 25.3937C41.5151 25.0921 41.3798 24.7189 41.3721 24.3324C41.3644 23.9458 41.4847 23.5676 41.7143 23.2566C41.9439 22.9455 42.27 22.7191 42.6416 22.6127C43.0133 22.5062 43.4098 22.5256 43.7692 22.6679C43.6541 22.277 43.6757 21.8585 43.8305 21.4815C43.9852 21.1045 44.2639 20.7916 44.6205 20.5943C44.9771 20.3971 45.3903 20.3273 45.7919 20.3965C46.1935 20.4657 46.5595 20.6698 46.8294 20.9751C46.8845 20.5608 47.0676 20.1741 47.3531 19.8689C47.6387 19.5638 48.0123 19.3554 48.422 19.2729C48.8317 19.1903 49.2569 19.2378 49.6383 19.4086C50.0197 19.5794 50.3383 19.8651 50.5494 20.2257C50.7087 19.8916 50.9662 19.6141 51.2876 19.4305C51.6089 19.2469 51.9787 19.1659 52.3474 19.1984C52.7161 19.2309 53.066 19.3753 53.3503 19.6123C53.6346 19.8492 53.8397 20.1675 53.9381 20.5243C54.5053 20.0525 55.4308 20.2257 55.9444 20.7362C56.4429 21.2897 56.7166 22.0096 56.7116 22.7545C56.9768 22.6506 57.2676 22.631 57.5443 22.6983C57.8211 22.7656 58.0703 22.9166 58.2582 23.1307C58.4399 23.3482 58.5742 23.6013 58.6524 23.8738C58.7305 24.1464 58.7508 24.4322 58.712 24.713C58.6308 25.2759 58.427 25.814 58.1149 26.2894C58.7597 26.4924 59.0404 27.3045 58.8941 27.9673Z" fill="#36344C"/>
<path id="Vector_59" d="M53.0442 38.3748C52.8061 38.6927 52.4853 38.9393 52.1169 39.0877C51.7484 39.2361 51.3464 39.2808 50.9543 39.2167C50.2677 39.1092 49.2645 38.5091 49.5272 37.6702C49.6014 37.4878 49.7177 37.3256 49.8666 37.1969C50.0156 37.0682 50.1929 36.9767 50.3841 36.9298C50.7261 36.8223 51.093 36.8223 51.435 36.9298C51.5212 36.6071 51.7098 36.3211 51.9724 36.1147C52.135 35.989 52.336 35.9231 52.5414 35.928C52.7469 35.9329 52.9445 36.0083 53.101 36.1416C53.7369 36.7238 53.4891 37.7747 53.0442 38.3748Z" fill="#F4E9DC"/>
</g>
<g id="Group_9">
<path id="Vector_60" d="M12.2468 60.2227C12.2468 60.2227 17.8417 87.8122 24.0666 86.4209C30.2915 85.0297 30.8767 81.9426 29.8347 79.3929C28.7928 76.8433 18.5075 57.4431 18.5075 57.4431C18.5075 57.4431 18.5075 53.6037 17.4656 50.4241C16.4236 47.2444 16.8386 43.0945 16.3878 42.5899C15.937 42.0854 14.0262 41.3957 14.2979 48.4088C14.2979 48.4088 6.41899 39.3417 5.20984 40.6075C4.00069 41.8734 9.65832 48.2177 9.65832 48.2177C9.65832 48.2177 2.075 42.1033 1.35548 43.1632C0.635963 44.223 7.13851 49.8508 7.13851 49.8508C7.13851 49.8508 1.72868 45.3964 0.937505 46.2532C0.146331 47.1101 6.49662 52.2243 6.49662 52.2243C6.49662 52.2243 0.0179525 51.3973 3.91691e-05 52.5229C-0.0178742 53.6485 6.11446 54.4187 6.11446 54.4187C6.11446 54.4187 8.7955 58.903 12.2468 60.2227Z" fill="#D36D29"/>
<path id="Vector_61" d="M11.5767 48.0443C11.1348 48.3041 10.7109 48.5877 10.2899 48.8833C10.288 48.8665 10.2807 48.8507 10.269 48.8385L9.54053 48.0025C9.52073 47.9756 9.49105 47.9577 9.45802 47.9526C9.42499 47.9476 9.3913 47.9559 9.36438 47.9757C9.33746 47.9955 9.3195 48.0251 9.31447 48.0582C9.30943 48.0912 9.31772 48.1249 9.33751 48.1518L10.066 48.9848C10.0768 48.9972 10.09 49.0074 10.1048 49.0146C9.37737 49.541 8.68523 50.1144 8.03282 50.7313L6.8177 49.4237C6.80861 49.4091 6.79662 49.3966 6.78249 49.3868C6.76835 49.3771 6.75237 49.3703 6.73552 49.367C6.71868 49.3637 6.70133 49.3639 6.68456 49.3676C6.66779 49.3712 6.65195 49.3783 6.63802 49.3883C6.6241 49.3984 6.61238 49.4111 6.60359 49.4259C6.59481 49.4406 6.58915 49.457 6.58696 49.4741C6.58477 49.4911 6.5861 49.5084 6.59087 49.5249C6.59564 49.5414 6.60374 49.5567 6.61468 49.5699L7.83577 50.8866L7.85667 50.9015C7.65067 51.0986 7.45064 51.2986 7.25956 51.4986C7.14611 51.6151 7.34316 51.7703 7.45064 51.6569C8.71148 50.3318 10.1504 49.1883 11.726 48.2593C11.8633 48.1787 11.714 47.9757 11.5767 48.0443Z" fill="#AA3617"/>
<path id="Vector_62" d="M13.1021 51.3799C12.6965 52.6012 12.4752 53.8761 12.4453 55.1626C12.4453 55.3238 12.6901 55.2939 12.6931 55.1357C12.7195 53.8944 12.9297 52.664 13.3171 51.4844C13.3798 51.3291 13.1529 51.2276 13.1021 51.3799Z" fill="#AA3617"/>
<path id="Vector_63" d="M17.1352 58.5717C16.139 58.8974 15.1638 59.2843 14.2153 59.7301C14.069 59.7987 14.1586 60.0286 14.3048 59.9629C15.2531 59.5131 16.2283 59.1223 17.2247 58.7926C17.377 58.7538 17.2874 58.5209 17.1352 58.5717Z" fill="#AA3617"/>
</g>
<g id="Group_10">
<path id="Vector_64" d="M92.1958 41.724C92.1958 41.724 95.8621 69.636 89.5297 70.3406C83.1974 71.0452 81.6389 68.3283 81.7912 65.5637C81.9434 62.7991 85.3738 41.1239 85.3738 41.1239C85.3738 41.1239 84.1259 37.4935 84.0811 34.1467C84.0363 30.7999 82.2897 27.0112 82.5555 26.3842C82.8212 25.7573 84.4035 24.4914 86.4158 31.2119C86.4158 31.2119 90.924 20.0757 92.4765 20.8848C94.029 21.6939 90.7448 29.534 90.7448 29.534C90.7448 29.534 95.9308 21.2879 96.9578 22.0552C97.9848 22.8224 93.6588 30.2595 93.6588 30.2595C93.6588 30.2595 97.328 24.2884 98.3491 24.8287C99.3701 25.3691 95.0261 32.2688 95.0261 32.2688C95.0261 32.2688 100.887 29.3847 101.275 30.4565C101.663 31.5283 96.1039 34.2333 96.1039 34.2333C96.1039 34.2333 95.0291 39.3565 92.1958 41.724Z" fill="#D36D29"/>
<path id="Vector_65" d="M88.8763 30.0025C89.3779 30.104 89.8735 30.2354 90.3691 30.3757C90.3648 30.3601 90.3648 30.3436 90.3691 30.3279L90.7871 29.3009C90.7974 29.2698 90.8192 29.2438 90.8481 29.2282C90.8769 29.2127 90.9107 29.2088 90.9423 29.2173C90.9737 29.2282 90.9997 29.2506 91.0152 29.28C91.0307 29.3093 91.0346 29.3435 91.0259 29.3755L90.6079 30.3996C90.6018 30.4145 90.5938 30.4285 90.5841 30.4414C91.4402 30.6959 92.278 31.0081 93.0919 31.3759L93.8174 29.7428C93.8277 29.7116 93.8496 29.6856 93.8784 29.6701C93.9073 29.6546 93.941 29.6506 93.9727 29.6592C94.0042 29.6688 94.0307 29.6906 94.0464 29.7196C94.062 29.7487 94.0656 29.7827 94.0563 29.8144L93.3278 31.4565C93.3284 31.4634 93.3284 31.4704 93.3278 31.4774C93.5845 31.5968 93.8383 31.7222 94.0891 31.8506C94.2324 31.9252 94.0891 32.1491 93.9577 32.0655C92.336 31.2218 90.6046 30.6078 88.8136 30.2414C88.6464 30.2085 88.7211 29.9697 88.8763 30.0025Z" fill="#AA3617"/>
<path id="Vector_66" d="M88.5075 33.6389C89.2907 34.6607 89.9148 35.7951 90.3585 37.0036C90.4123 37.1559 90.1704 37.2096 90.1137 37.0604C89.6827 35.894 89.0789 34.799 88.3224 33.8121C88.2298 33.6837 88.4119 33.5105 88.5075 33.6389Z" fill="#AA3617"/>
<path id="Vector_67" d="M87.0384 41.7505C88.0844 41.736 89.1303 41.7859 90.1702 41.8998C90.3284 41.9177 90.3195 42.1655 90.1702 42.1476C89.1301 42.0367 88.0843 41.9869 87.0384 41.9983C86.8682 42.0013 86.8771 41.7505 87.0384 41.7505Z" fill="#AA3617"/>
</g>
</g>
<g id="Group_11">
<path id="Vector_68" d="M113.587 37.1753C113.086 37.7544 112.436 38.1848 111.707 38.4196C110.978 38.6544 110.199 38.6846 109.455 38.5069C107.899 38.0949 106.72 36.9156 105.308 36.214C104.558 35.8408 103.746 35.5422 103.164 34.9183C103.09 34.8421 103.022 34.7603 102.961 34.6734C102.892 34.5873 102.829 34.4965 102.773 34.4018C101.931 32.9269 102.791 31.0699 103.707 29.8398C104.193 29.17 104.807 28.6031 105.513 28.1716C106.219 27.7402 107.004 27.4528 107.822 27.326C108.597 27.2403 109.382 27.3125 110.129 27.5383C110.876 27.764 111.57 28.1387 112.169 28.6396C113.445 29.6513 114.333 31.073 114.682 32.6642C114.856 33.4498 114.848 34.2649 114.658 35.0469C114.468 35.8289 114.102 36.557 113.587 37.1753Z" fill="#AF3737"/>
<path id="Vector_69" d="M115.868 42.3064C115.868 47.8745 112.157 51.2004 107.439 51.2004C102.722 51.2004 98.7812 47.8745 98.7812 42.3064C98.7812 36.7384 102.606 33.4453 107.326 33.4453C112.046 33.4453 115.868 36.7384 115.868 42.3064Z" fill="#AF3737"/>
<g id="Group_12">
<path id="Vector_70" d="M74.2421 24.904C74.0898 26.0982 73.7256 27.2566 73.4987 28.4419C73.2001 30.078 73.1345 31.7588 72.8419 33.4009C72.5612 34.9713 72.0238 36.5566 70.949 37.727C70.949 38.13 70.9729 38.5301 70.9878 38.9212L64.8018 37.3896C64.8495 36.7547 64.8953 36.1187 64.9391 35.4818C64.0643 33.5979 63.7449 31.4991 63.097 29.5107C62.3596 27.2357 61.1982 25.101 60.6339 22.7753C60.5906 22.6302 60.5764 22.478 60.5921 22.3275C60.6014 22.2519 60.6314 22.1804 60.6788 22.1208C60.7262 22.0612 60.7892 22.016 60.8608 21.9901C61.0937 21.9304 61.2967 22.1483 61.437 22.3454C62.2811 23.543 63.0251 24.8082 63.6613 26.1281C63.0777 24.0741 62.6545 21.9779 62.3954 19.8584C62.3233 19.416 62.3153 18.9655 62.3715 18.5209C62.3984 18.3417 62.476 18.1387 62.6522 18.0909C62.7366 18.0847 62.8212 18.1011 62.8973 18.1383C62.9734 18.1756 63.0382 18.2324 63.0851 18.3029C63.3623 18.6595 63.5708 19.0644 63.7001 19.4971C64.4943 21.6258 65.1332 23.8083 65.7661 25.9907H65.8169C65.2914 23.2649 64.76 20.5152 64.6644 17.7476C64.6496 17.5881 64.6637 17.4273 64.7062 17.2729C64.731 17.1972 64.7757 17.1296 64.8356 17.0771C64.8955 17.0246 64.9683 16.9891 65.0466 16.9743C65.2556 16.9475 65.4347 17.1236 65.5601 17.2938C65.9768 17.9207 66.28 18.616 66.4558 19.3479C66.9185 20.9272 67.2678 22.5335 67.5783 24.1486C67.4679 22.4499 67.3634 20.757 67.3186 19.0553C67.2738 18.4991 67.3264 17.9394 67.4738 17.4013C67.5485 17.1774 67.7216 16.9296 67.9515 16.9654C68.1337 16.9923 68.2501 17.1744 68.3158 17.3416C69.2652 19.4315 69.4204 21.7483 69.7817 24.0024C70.0196 25.5085 70.3557 26.9975 70.7878 28.4598C71.2 26.9919 71.8681 25.6083 72.7613 24.3726C72.8875 24.1804 73.0473 24.0125 73.233 23.877C73.3263 23.8108 73.4345 23.7686 73.548 23.754C73.6615 23.7394 73.7768 23.7529 73.8838 23.7934C74.263 23.9606 74.2958 24.486 74.2421 24.904Z" fill="#F99958"/>
<path id="Vector_71" d="M68.6878 24.1311C68.3893 24.2565 68.0907 24.3938 67.7922 24.5401C67.7593 24.3102 67.7265 24.0773 67.6966 23.8475C67.6964 23.8287 67.6922 23.8102 67.6844 23.7931C67.6765 23.7761 67.6652 23.7609 67.6512 23.7485C67.6371 23.736 67.6206 23.7267 67.6027 23.7211C67.5848 23.7154 67.5659 23.7136 67.5473 23.7157C67.5286 23.7178 67.5106 23.7238 67.4944 23.7332C67.4782 23.7427 67.4642 23.7555 67.4532 23.7707C67.4423 23.7859 67.4346 23.8033 67.4308 23.8216C67.4269 23.84 67.427 23.859 67.4309 23.8773C67.4667 24.1221 67.4996 24.3699 67.5324 24.6177C67.5311 24.6326 67.5311 24.6476 67.5324 24.6625C66.4788 25.2097 65.5012 25.8922 64.6245 26.6927C64.4991 26.8061 64.6543 27.0241 64.7797 26.9076C65.9528 25.8371 67.3049 24.9812 68.7744 24.3789C68.9416 24.3132 68.8461 24.0654 68.6878 24.1311Z" fill="#D36D29"/>
<path id="Vector_72" d="M63.8021 25.9666C63.7807 25.9383 63.7492 25.9194 63.7141 25.9138C63.679 25.9082 63.6432 25.9165 63.614 25.9368C63.5868 25.959 63.5689 25.9907 63.5639 26.0256C63.5589 26.0604 63.5672 26.0959 63.5872 26.1249C63.593 26.1374 63.6 26.1494 63.6081 26.1607C63.6081 26.1816 63.629 26.2055 63.6409 26.2294C63.6609 26.2739 63.6779 26.3198 63.6916 26.3667L63.7096 26.4324V26.4533C63.7096 26.4533 63.7096 26.4742 63.7096 26.4861C63.7186 26.5375 63.7246 26.5893 63.7275 26.6414C63.7327 26.6762 63.7511 26.7077 63.7788 26.7294C63.8066 26.7511 63.8417 26.7613 63.8768 26.7578C63.911 26.7526 63.9421 26.7347 63.9637 26.7075C63.9853 26.6804 63.9958 26.6461 63.9932 26.6115C63.9803 26.3847 63.9149 26.1639 63.8021 25.9666Z" fill="#D36D29"/>
<path id="Vector_73" d="M69.3001 31.4161C68.4226 30.2054 67.3045 29.189 66.016 28.4305C65.8667 28.344 65.7592 28.5858 65.9055 28.6724C67.1481 29.4088 68.2254 30.3937 69.0702 31.5654C69.09 31.5959 69.1211 31.6172 69.1566 31.6248C69.1922 31.6323 69.2293 31.6255 69.2598 31.6057C69.2903 31.5859 69.3116 31.5548 69.3192 31.5192C69.3267 31.4837 69.3199 31.4466 69.3001 31.4161Z" fill="#D36D29"/>
</g>
<g id="Group_13">
<path id="Vector_74" d="M134.109 128.202C134.109 128.5 134.109 128.799 134.091 129.097C134.111 129.359 134.045 129.62 133.903 129.841C133.84 129.924 133.755 129.986 133.657 130.02C133.559 130.054 133.453 130.058 133.353 130.032C133.262 129.995 133.18 129.94 133.112 129.87C133.044 129.799 132.992 129.715 132.959 129.623C132.852 129.357 132.762 129.085 132.69 128.808C132.598 128.509 132.514 128.211 132.434 127.912C132.353 127.613 132.293 127.366 132.228 127.091C132.192 127.649 132.147 128.211 132.063 128.766C131.959 129.535 131.758 130.289 131.466 131.008C131.359 131.268 131.218 131.59 130.92 131.674C130.801 131.706 130.675 131.693 130.564 131.638C130.454 131.583 130.368 131.49 130.323 131.375C130.212 131.096 130.171 130.793 130.203 130.495C130.203 130.053 130.221 129.599 130.227 129.166L130.245 128.157C130.2 128.351 130.15 128.542 130.099 128.73C129.942 129.32 129.748 129.899 129.52 130.465C129.353 130.874 128.923 131.39 128.433 131.113C128.344 131.055 128.27 130.979 128.214 130.889C128.159 130.799 128.125 130.698 128.114 130.593C128.068 130.291 128.051 129.985 128.063 129.679C128.064 129.28 128.087 128.882 128.131 128.485C127.976 128.754 127.812 129.02 127.633 129.273C127.518 129.482 127.344 129.653 127.134 129.766C127.046 129.802 126.948 129.806 126.858 129.777C126.767 129.748 126.69 129.688 126.639 129.608C126.566 129.464 126.541 129.301 126.567 129.142C126.591 128.897 126.666 128.655 126.713 128.417C126.83 127.873 126.943 127.333 127.057 126.789C127.17 126.246 127.292 125.685 127.409 125.129C127.543 124.602 127.643 124.067 127.707 123.526C127.734 123.037 127.679 122.546 127.543 122.075C127.361 121.777 127.185 121.454 127.03 121.129C126.313 119.606 126.012 117.815 126.603 116.203C126.977 115.158 127.744 114.301 128.74 113.814C128.812 113.766 128.881 113.719 128.952 113.68C129.377 113.434 129.868 113.329 130.356 113.381C130.835 113.45 131.277 113.679 131.61 114.032C132.389 114.829 132.583 115.97 132.804 117.018C133.058 118.251 133.293 119.487 133.491 120.732C133.901 123.201 134.108 125.699 134.109 128.202Z" fill="#F99958"/>
<path id="Vector_75" d="M130.159 122.311C130.102 123.574 130.054 124.876 129.675 126.091C129.597 126.339 129.445 126.712 129.126 126.688C128.857 126.664 128.773 126.309 128.722 126.091C128.606 125.457 128.529 124.815 128.493 124.171C128.448 123.531 128.272 122.907 127.976 122.338C127.893 122.192 127.678 122.338 127.761 122.496C128.062 123.103 128.229 123.766 128.251 124.443C128.31 125.103 128.313 125.819 128.549 126.446C128.581 126.557 128.638 126.659 128.716 126.744C128.795 126.829 128.892 126.893 129 126.933C129.13 126.961 129.265 126.95 129.389 126.902C129.512 126.853 129.619 126.77 129.696 126.661C129.863 126.399 129.977 126.105 130.03 125.798C130.116 125.452 130.183 125.101 130.233 124.747C130.347 123.956 130.382 123.156 130.418 122.359C130.43 122.186 130.168 122.141 130.159 122.311Z" fill="#D36D29"/>
<path id="Vector_76" d="M128.372 126.995C128.291 127.476 128.213 127.957 128.133 128.434C128.132 128.467 128.143 128.498 128.164 128.523C128.185 128.548 128.214 128.564 128.246 128.569C128.278 128.574 128.311 128.568 128.338 128.551C128.366 128.533 128.386 128.507 128.396 128.476C128.476 127.998 128.554 127.518 128.634 127.037C128.635 127.005 128.624 126.973 128.603 126.948C128.582 126.924 128.553 126.907 128.521 126.902C128.489 126.897 128.457 126.904 128.429 126.921C128.402 126.938 128.381 126.964 128.372 126.995Z" fill="#D36D29"/>
<path id="Vector_77" d="M130.25 125.864L130.125 128.121C130.125 128.291 130.379 128.336 130.388 128.162L130.513 125.905C130.522 125.738 130.259 125.693 130.25 125.864Z" fill="#D36D29"/>
<path id="Vector_78" d="M132.081 123.78C132.045 123.613 131.782 123.643 131.815 123.81C132.049 124.955 132.17 126.12 132.177 127.288C132.177 127.459 132.442 127.429 132.442 127.259C132.434 126.09 132.313 124.925 132.081 123.78Z" fill="#D36D29"/>
</g>
<path id="Vector_79" d="M105.127 98.8596L86.8526 97.9639C86.8526 97.9639 80.4874 97.6743 79.75 140.001H96.908L102.222 116.322L105.118 140.001H120.736C120.736 140.001 124.59 102.559 115.418 98.7103L105.127 98.8596Z" fill="#36344C"/>
<g id="Group_14">
<path id="Vector_80" d="M117.011 100.266C98.5839 105.64 89.0391 99.1555 89.0391 99.1555L91.741 83.6903L94.0369 61.415L113.201 62.3107L115.422 87.688C115.252 87.6999 117.011 100.266 117.011 100.266Z" fill="#F4E9DC"/>
<path id="Vector_81" d="M109.346 76.7729C109.324 77.7958 109.243 78.8165 109.104 79.8301C108.976 80.8452 108.841 81.8573 108.68 82.8665C108.382 84.819 107.946 86.8432 107.005 88.5987C106.641 89.2765 106.11 89.9631 105.324 90.1303C104.453 90.3154 103.667 89.7422 103.079 89.175C102.315 88.4315 101.604 87.6284 100.87 86.8552C100.184 86.1697 99.5319 85.4503 98.9174 84.6996C98.348 84.0107 97.9481 83.1977 97.7501 82.3261C97.5987 81.3942 97.7233 80.4384 98.1083 79.5764C98.4948 78.6915 98.9881 77.8573 99.5772 77.0924C100.121 76.3409 100.712 75.6248 101.348 74.9488C101.575 74.7099 101.807 74.48 102.046 74.2501C102.443 73.8322 102.861 73.4231 103.3 73.0559C103.984 72.431 104.732 71.8815 105.533 71.4168C105.923 71.1811 106.375 71.0688 106.829 71.0944C107.21 71.1404 107.566 71.3055 107.847 71.5661C108.483 72.1394 108.8 72.9872 109.012 73.7933C109.253 74.7677 109.365 75.7694 109.346 76.7729Z" fill="#F2B34E"/>
<path id="Vector_82" d="M110.897 85.4907C111.267 88.1 108.329 89.2853 106.281 88.1777C104.102 86.0042 103.278 77.0206 108.458 79.0717C110.772 80.257 111.04 83.1798 110.897 85.4907Z" fill="#D36D29"/>
<path id="Vector_83" d="M99.8949 76.9881C98.72 77.6247 97.3661 77.8502 96.0484 77.629C94.7306 77.4077 93.5246 76.7524 92.6221 75.7671C92.5086 75.6417 92.2937 75.7969 92.4071 75.9223C93.3453 76.953 94.6002 77.6417 95.9735 77.8796C97.3468 78.1175 98.7602 77.891 99.9904 77.2359C100.134 77.1553 100.038 76.9075 99.8949 76.9881Z" fill="#E2CAB0"/>
<path id="Vector_84" d="M115.051 77.901C113.775 78.6529 112.295 78.9864 110.82 78.8547C109.345 78.723 107.948 78.1326 106.826 77.1665C106.694 77.0531 106.527 77.2621 106.655 77.3725C107.562 78.1459 108.643 78.6889 109.804 78.9555C110.966 79.2222 112.175 79.2045 113.328 78.9041C113.991 78.7299 114.626 78.4636 115.215 78.113C115.352 78.0264 115.197 77.8114 115.051 77.901Z" fill="#E2CAB0"/>
</g>
<g id="Group_15">
<path id="Vector_85" d="M113.125 47.9552L113.056 49.1225C113.03 49.5595 112.955 49.9921 112.833 50.4123C112.444 51.7524 111.599 52.9144 110.444 53.6964C109.269 54.5037 107.844 54.8624 106.427 54.7073C105.01 54.5523 103.696 53.8937 102.723 52.8515C102.163 52.2612 101.73 51.5626 101.449 50.7986C101.169 50.0347 101.048 49.2215 101.093 48.409L101.162 47.2476C97.8271 47.0476 97.9137 42.8379 99.3855 41.993C100.52 41.3451 101.213 42.3155 101.389 42.608C102.195 42.575 102.995 42.46 103.777 42.2647C105.607 41.8656 107.303 40.9984 108.698 39.7479C108.957 39.5061 109.2 39.2478 109.426 38.9746C109.788 38.5382 110.104 38.066 110.369 37.5654C111.109 38.1385 111.742 38.838 112.238 39.6314C112.584 40.1634 112.858 40.7386 113.053 41.3422C113.272 42.0026 113.39 42.6919 113.406 43.3873C113.489 43.2649 114.352 42.0915 115.52 42.9574C115.692 43.0901 115.832 43.2593 115.932 43.453C116 43.5799 116.057 43.7128 116.102 43.85C116.618 45.4294 115.812 48.1134 113.125 47.9552Z" fill="#F99958"/>
<path id="Vector_86" d="M118.176 59.8885C117.903 60.5082 117.558 61.0935 117.149 61.6321C112.112 68.5287 101.964 68.9975 96.1511 62.7397C94.73 61.2081 93.5358 59.7542 92.9297 58.6794C95.554 58.142 101.949 56.888 101.949 56.888L102.068 56.273L102.451 54.2518L102.719 52.8516C103.689 53.8978 105.003 54.5608 106.42 54.7197C107.838 54.8786 109.266 54.5229 110.443 53.7174L110.55 55.3117L110.688 57.2314C111.133 57.2791 118.176 59.8617 118.176 59.8885Z" fill="#F99958"/>
<path id="Vector_87" d="M107.734 48.4571C107.036 48.4571 106.337 48.4272 105.644 48.3944C106.128 46.9294 106.592 45.4556 107.036 43.9727C107.083 43.8145 106.836 43.7608 106.788 43.916C106.33 45.4486 105.85 46.9722 105.349 48.4869C105.322 48.5735 105.406 48.6362 105.48 48.6422C106.235 48.678 106.992 48.7009 107.752 48.7108C107.91 48.7108 107.896 48.4571 107.734 48.4571Z" fill="#D36D29"/>
<path id="Vector_88" d="M103.229 48.2745C103.778 48.2745 104.223 47.8294 104.223 47.2803C104.223 46.7312 103.778 46.2861 103.229 46.2861C102.679 46.2861 102.234 46.7312 102.234 47.2803C102.234 47.8294 102.679 48.2745 103.229 48.2745Z" fill="#D36D29"/>
<path id="Vector_89" d="M111.205 48.7491C111.754 48.7491 112.199 48.304 112.199 47.7549C112.199 47.2059 111.754 46.7607 111.205 46.7607C110.656 46.7607 110.211 47.2059 110.211 47.7549C110.211 48.304 110.656 48.7491 111.205 48.7491Z" fill="#D36D29"/>
<path id="Vector_90" d="M104.938 44.7172C104.967 44.2316 104.671 43.819 104.278 43.7957C103.884 43.7723 103.542 44.147 103.513 44.6325C103.484 45.1181 103.78 45.5307 104.173 45.554C104.567 45.5774 104.909 45.2027 104.938 44.7172Z" fill="#36344C"/>
<path id="Vector_91" d="M110.313 45.2308C110.342 44.7453 110.046 44.3327 109.653 44.3093C109.259 44.286 108.917 44.6606 108.888 45.1462C108.859 45.6318 109.155 46.0443 109.548 46.0677C109.942 46.0911 110.284 45.7164 110.313 45.2308Z" fill="#36344C"/>
<path id="Vector_92" d="M105.111 42.6951C105.072 42.5673 104.984 42.46 104.866 42.3966L104.738 42.3488C104.652 42.3264 104.561 42.3264 104.475 42.3488L103.331 42.5787C103.203 42.6188 103.096 42.7078 103.033 42.8265C102.972 42.9477 102.96 43.0879 103 43.2176C103.04 43.345 103.128 43.452 103.245 43.5162L103.373 43.561C103.459 43.5849 103.55 43.5849 103.636 43.561L104.779 43.3311C104.907 43.2911 105.014 43.2034 105.078 43.0862C105.139 42.9651 105.151 42.8248 105.111 42.6951Z" fill="#36344C"/>
<path id="Vector_93" d="M108.861 42.9154C108.916 42.7959 109.016 42.7027 109.139 42.6556L109.27 42.6228C109.36 42.6134 109.451 42.6289 109.533 42.6676L110.637 43.0318C110.758 43.0868 110.852 43.1864 110.9 43.3094C110.951 43.4359 110.951 43.5771 110.9 43.7035C110.843 43.8227 110.743 43.9155 110.619 43.9633L110.488 43.9931C110.399 44.002 110.31 43.9876 110.228 43.9513L109.121 43.5871C109 43.5321 108.906 43.4325 108.858 43.3094C108.807 43.1828 108.808 43.0412 108.861 42.9154Z" fill="#36344C"/>
<path id="Vector_94" d="M110.438 53.717C110.438 53.717 109.136 57.44 102.078 56.2935L102.463 54.2723L102.729 52.8721C103.701 53.9112 105.013 54.5678 106.427 54.7228C107.841 54.8778 109.264 54.521 110.438 53.717Z" fill="#D36D29"/>
<path id="Vector_95" d="M109.562 49.1459C109.311 49.4985 108.98 49.7874 108.597 49.9895C108.214 50.1917 107.789 50.3015 107.356 50.3103C107.186 50.3103 107.216 50.579 107.386 50.576C107.854 50.5643 108.313 50.4444 108.728 50.2259C109.142 50.0073 109.5 49.696 109.774 49.3161C109.867 49.1758 109.661 49.0086 109.562 49.1459Z" fill="#36344C"/>
</g>
<g id="Group_16">
<path id="Vector_96" d="M102.234 55.4138L101.935 56.9066L99.3199 57.4231L90.2796 117.284C79.46 116.507 74.8682 110.032 74.8682 110.032L79.1614 74.9603C79.1614 74.9603 62.4632 62.4538 60.7584 56.9275C59.0537 51.4012 63.4723 35.8047 63.4723 35.8047L64.8009 36.1361L70.9869 37.6647L71.8319 37.8946V50.6698L94.4773 56.405C96.9178 55.3503 99.6066 55.0067 102.234 55.4138Z" fill="#6BB2AB"/>
<path id="Vector_97" d="M110.547 55.3066C111.641 55.3294 112.716 55.5898 113.7 56.0698C114.683 56.5498 115.55 57.2378 116.24 58.0862C116.24 58.0862 122.967 59.579 124.227 64.0066C125.487 68.4341 132.288 112.994 132.288 112.994C132.288 112.994 131.622 117.618 126.146 118.171L123.038 113.51L123.188 115.657C123.188 115.657 119.115 119.762 114.231 119.135L110.681 57.2264L110.547 55.3066Z" fill="#6BB2AB"/>
<path id="Vector_98" d="M94.6311 69.5896C94.3878 66.9626 94.2772 64.3249 94.2997 61.6868C94.3117 60.1841 94.3674 58.6843 94.4669 57.1875C94.4669 57.0174 94.2161 56.9756 94.2042 57.1457C93.852 62.4463 94.0381 67.7689 94.7595 73.0319C94.9585 74.5108 95.2034 75.9826 95.4939 77.4476C95.5268 77.6147 95.7925 77.5849 95.7597 77.4177C95.2525 74.8289 94.8758 72.2162 94.6311 69.5896Z" fill="#389688"/>
<path id="Vector_99" d="M116.43 58.644C115.966 63.4578 115.003 68.2104 113.558 72.8254C113.149 74.1241 112.704 75.4139 112.22 76.6858C112.161 76.847 112.402 76.9574 112.465 76.7962C114.182 72.2642 115.425 67.5668 116.176 62.779C116.388 61.4236 116.561 60.0592 116.693 58.6948C116.711 58.5156 116.448 58.4738 116.43 58.644Z" fill="#389688"/>
<path id="Vector_100" d="M78.5105 65.5889C78.424 64.7858 78.3404 63.9826 78.2657 63.1765C78.2587 63.1439 78.2399 63.1151 78.2128 63.0956C78.1858 63.0762 78.1525 63.0674 78.1193 63.0712C78.0862 63.0749 78.0557 63.0908 78.0336 63.1158C78.0115 63.1408 77.9996 63.1731 78 63.2064C78.2647 66.0546 78.62 68.8929 79.0659 71.7212C79.1913 72.5174 79.3236 73.3135 79.4629 74.1097C79.4928 74.2769 79.7615 74.247 79.7287 74.0798C79.241 71.2535 78.835 68.4232 78.5105 65.5889Z" fill="#389688"/>
<path id="Vector_101" d="M78.5327 72.1925C77.7803 70.003 77.027 67.8136 76.2726 65.6242C76.2159 65.463 75.9741 65.5585 76.0218 65.7198C76.7782 67.9092 77.5325 70.0986 78.2849 72.288C78.3416 72.4522 78.5894 72.3537 78.5327 72.1925Z" fill="#389688"/>
<path id="Vector_102" d="M122.124 98.7583C121.838 94.3138 121.505 89.8733 121.127 85.4367C120.906 82.9229 120.676 80.411 120.438 77.9012C120.431 77.8686 120.412 77.8397 120.385 77.8202C120.358 77.8008 120.324 77.792 120.291 77.7958C120.258 77.7995 120.228 77.8154 120.205 77.8404C120.183 77.8654 120.171 77.8977 120.172 77.931C120.608 82.3815 120.996 86.8399 121.336 91.3063C121.677 95.7727 121.967 100.215 122.208 104.634C122.347 107.154 122.471 109.672 122.578 112.19C122.578 112.363 122.85 112.334 122.844 112.16C122.651 107.694 122.411 103.227 122.124 98.7583Z" fill="#389688"/>
<path id="Vector_103" d="M89.7191 99.224C87.7696 103.443 84.5807 106.967 80.5773 109.327C80.428 109.417 80.5773 109.626 80.7326 109.545C84.7716 107.154 87.9904 103.593 89.9639 99.3344C89.9773 99.3022 89.9777 99.2659 89.9648 99.2334C89.952 99.2009 89.927 99.1747 89.8951 99.1603C89.8633 99.146 89.8271 99.1446 89.7942 99.1564C89.7613 99.1683 89.7344 99.1925 89.7191 99.224Z" fill="#389688"/>
<path id="Vector_104" d="M120.796 112.498C118.67 109.986 117.079 107.067 116.118 103.92C115.846 103.031 115.628 102.127 115.464 101.212C115.434 101.045 115.165 101.072 115.198 101.242C115.953 105.453 117.807 109.389 120.572 112.653C120.703 112.784 120.921 112.629 120.796 112.498Z" fill="#389688"/>
<path id="Vector_105" d="M93.0085 67.0546C90.9503 70.534 89.5023 74.3397 88.7273 78.3072C88.6287 78.8118 89.4169 78.9372 89.5154 78.4326C90.2828 74.5372 91.7095 70.8013 93.734 67.386C93.9968 66.9442 93.2653 66.6187 93.0085 67.0546Z" fill="#F4E9DC"/>
<path id="Vector_106" d="M116.193 70.2168C116.05 69.7212 115.298 70.0138 115.45 70.5153C116.509 74.1713 116.836 78.0001 116.414 81.7828C116.358 82.2904 117.146 82.4188 117.205 81.9082C117.641 77.9825 117.297 74.0093 116.193 70.2168Z" fill="#F4E9DC"/>
<path id="Vector_107" d="M94.686 77.3758C94.1267 82.4731 93.5296 87.5635 92.8947 92.6469C92.2597 97.7303 91.579 102.786 90.8525 107.814C90.4545 110.644 90.0375 113.472 89.6016 116.298C89.601 116.331 89.6122 116.362 89.633 116.387C89.6538 116.412 89.6828 116.428 89.7148 116.433C89.7468 116.439 89.7795 116.432 89.807 116.415C89.8344 116.398 89.8548 116.371 89.8643 116.34C90.6346 111.271 91.3641 106.195 92.0527 101.114C92.7414 96.0325 93.3853 90.973 93.9844 85.9354C94.3208 83.0971 94.6452 80.2558 94.9577 77.4116C94.9696 77.2474 94.7069 77.2056 94.686 77.3758Z" fill="#F4E9DC"/>
<path id="Vector_108" d="M113.979 102.084C113.635 96.764 113.414 91.4378 113.316 86.1056C113.258 83.1021 113.243 80.0977 113.268 77.0922C113.268 76.922 113.006 76.9519 113.003 77.1221C112.961 82.4543 113.044 87.7845 113.251 93.1127C113.458 98.4409 113.787 103.762 114.239 109.076C114.492 112.062 114.79 115.048 115.134 118.033C115.138 118.068 115.156 118.1 115.183 118.122C115.211 118.144 115.246 118.154 115.281 118.15C115.316 118.146 115.347 118.128 115.369 118.101C115.391 118.073 115.401 118.038 115.397 118.003C114.798 112.711 114.325 107.405 113.979 102.084Z" fill="#F4E9DC"/>
</g>
</g>
</g>
</svg>
